<?xml version="1.0" standalone="no"?>
<!DOCTYPE svg PUBLIC "-//W3C//DTD SVG 20010904//EN"
 "http://www.w3.org/TR/2001/REC-SVG-20010904/DTD/svg10.dtd">
<svg version="1.0" xmlns="http://www.w3.org/2000/svg"
 width="142.000000pt" height="142.000000pt" viewBox="0 0 142.000000 142.000000"
 preserveAspectRatio="xMidYMid meet">

<g transform="translate(0.000000,142.000000) scale(0.100000,-0.100000)"
fill="#000000" stroke="none">
<path d="M620 836 c0 -2 8 -10 18 -17 15 -13 16 -12 3 4 -13 16 -21 21 -21 13z"/>
<path d="M488 808 c-2 -7 -5 -47 -6 -88 -2 -69 -1 -73 13 -56 8 11 15 25 15
30 0 6 -5 4 -11 -4 -8 -11 -9 5 -5 58 6 68 4 88 -6 60z"/>
<path d="M1241 804 c0 -11 3 -14 6 -6 3 7 2 16 -1 19 -3 4 -6 -2 -5 -13z"/>
<path d="M980 720 c0 -40 4 -70 10 -70 6 0 10 30 10 70 0 40 -4 70 -10 70 -6
0 -10 -30 -10 -70z"/>
<path d="M1250 727 c0 -139 -64 -290 -166 -391 -100 -101 -213 -150 -394 -170
-19 -2 -1 -2 40 -1 135 5 290 74 376 166 87 94 142 223 151 356 3 46 3 83 -1
83 -3 0 -6 -19 -6 -43z"/>
<path d="M653 742 c-11 -28 -5 -92 8 -92 5 0 9 13 9 29 0 16 4 31 8 33 4 2 2
14 -4 28 l-13 24 -8 -22z"/>
<path d="M554 722 c-38 -25 -17 -72 31 -70 33 1 35 3 35 35 0 22 -5 33 -14 33
-8 0 -20 2 -28 5 -7 3 -18 1 -24 -3z m44 -34 c-4 -27 -33 -36 -42 -13 -8 22 1
35 25 35 15 0 20 -6 17 -22z"/>
<path d="M886 715 c-31 -32 -10 -67 38 -63 22 2 26 7 26 35 0 18 -4 33 -9 33
-5 0 -16 3 -24 6 -8 3 -22 -2 -31 -11z m50 -16 c10 -17 -23 -46 -37 -32 -7 7
-9 19 -6 27 7 18 33 21 43 5z"/>
<path d="M1025 720 c3 -5 13 -10 21 -10 12 0 11 -6 -6 -30 l-21 -30 38 1 c23
1 29 3 16 6 -27 5 -28 11 -6 35 19 21 18 23 -20 32 -19 4 -26 3 -22 -4z"/>
<path d="M312 708 c-21 -21 -14 -58 14 -68 37 -14 43 -11 12 6 -32 17 -37 48
-10 63 9 6 12 11 7 11 -6 0 -16 -5 -23 -12z"/>
<path d="M712 688 c3 -30 6 -33 36 -34 30 -1 32 1 32 33 0 39 -17 45 -22 6 -4
-39 -28 -42 -28 -4 0 17 -5 31 -11 31 -6 0 -9 -14 -7 -32z"/>
<path d="M810 685 c0 -19 5 -35 10 -35 6 0 10 10 10 23 0 13 5 28 12 35 9 9 7
12 -10 12 -18 0 -22 -6 -22 -35z"/>
<path d="M608 173 c7 -3 16 -2 19 1 4 3 -2 6 -13 5 -11 0 -14 -3 -6 -6z"/>
</g>
</svg>
